<svg width="135" height="40" viewBox="0 0 135 40" fill="none" xmlns="http://www.w3.org/2000/svg">
<path d="M124.249 7.92969e-06H10.7566C10.3429 7.92969e-06 9.9342 7.92975e-06 9.5216 0.00200793C9.17621 0.00400793 8.83358 0.00981793 8.48488 0.0147079C7.72733 0.0226097 6.97157 0.0816842 6.22416 0.191418C5.4778 0.303541 4.75482 0.514924 4.07967 0.818418C3.40534 1.12448 2.7892 1.52218 2.25357 1.99708C1.71514 2.47064 1.26632 3.01802 0.924356 3.61817C0.581453 4.21712 0.343683 4.85895 0.219258 5.52149C0.0936495 6.18319 0.0260586 6.85253 0.0170916 7.52349C0.00662229 7.83009 0.00551669 8.13771 0 8.44435V31.5586C0.00551669 31.8691 0.00662229 32.1699 0.0170916 32.4805C0.0260614 33.1514 0.0936522 33.8207 0.219258 34.4824C0.343339 35.1453 0.581124 35.7875 0.924356 36.3867C1.26616 36.9849 1.71505 37.5301 2.25357 38.001C2.78717 38.478 3.40371 38.876 4.07967 39.1797C4.75481 39.484 5.47772 39.6967 6.22416 39.8105C6.9717 39.9194 7.72738 39.9785 8.48488 39.9873C8.83358 39.9941 9.17621 39.998 9.5216 39.998C9.93419 40 10.343 40 10.7566 40H124.249C124.655 40 125.067 40 125.472 39.998C125.816 39.998 126.169 39.9941 126.512 39.9873C127.268 39.9789 128.023 39.9198 128.769 39.8105C129.518 39.6959 130.243 39.4833 130.921 39.1797C131.597 38.8758 132.213 38.4779 132.746 38.001C133.283 37.5282 133.733 36.9835 134.079 36.3867C134.42 35.7871 134.655 35.145 134.777 34.4824C134.903 33.8206 134.973 33.1515 134.987 32.4805C134.991 32.1699 134.991 31.8691 134.991 31.5586C135 31.1953 135 30.834 135 30.4648V9.53614C135 9.16993 135 8.80665 134.991 8.44435C134.991 8.13771 134.991 7.83009 134.987 7.52345C134.973 6.85243 134.903 6.18324 134.777 5.52145C134.655 4.85929 134.419 4.21751 134.079 3.61813C133.383 2.4152 132.278 1.43603 130.921 0.818328C130.243 0.515575 129.518 0.304248 128.769 0.191328C128.023 0.0811107 127.269 0.0220157 126.512 0.0145679C126.169 0.00968793 125.816 0.00382793 125.472 0.00187793C125.067 -0.00012207 124.655 -0.00012207 124.249 -0.00012207V7.92969e-06Z" fill="#156C9C"/>
<path d="M9.43001 39.128C9.08569 39.128 8.74969 39.1241 8.40807 39.1173C7.70037 39.1091 6.99433 39.0546 6.29574 38.9542C5.64433 38.8549 5.0133 38.6702 4.42345 38.4061C3.839 38.1443 3.30594 37.801 2.84469 37.3893C2.37676 36.9825 1.98718 36.5107 1.6914 35.9925C1.39236 35.471 1.18541 34.912 1.07775 34.335C0.961494 33.715 0.898592 33.088 0.889592 32.4596C0.882427 32.2487 0.873047 31.5463 0.873047 31.5463V8.44092C0.873047 8.44092 0.883037 7.74936 0.889648 7.54619C0.898266 6.91874 0.960802 6.29278 1.07671 5.67373C1.18457 5.09513 1.39168 4.53451 1.69088 4.01128C1.98557 3.49349 2.37299 3.02131 2.8381 2.61304C3.30269 2.20089 3.83745 1.85581 4.42289 1.59036C5.01139 1.32718 5.64123 1.14378 6.29132 1.0463C6.99221 0.944847 7.7007 0.889995 8.41085 0.882208L9.43056 0.869995H125.57L126.602 0.882698C127.306 0.890099 128.008 0.944461 128.702 1.04532C129.359 1.14403 129.995 1.32871 130.59 1.59329C131.763 2.12824 132.718 2.9746 133.32 4.01372C133.614 4.53334 133.818 5.08938 133.924 5.66299C134.042 6.28712 134.107 6.918 134.121 7.55059C134.124 7.83385 134.124 8.13811 134.124 8.44092C134.133 8.816 134.133 9.173 134.133 9.53294V30.466C134.133 30.8294 134.133 31.1839 134.124 31.5414C134.124 31.8667 134.124 32.1646 134.12 32.4713C134.107 33.0926 134.042 33.7122 133.927 34.3252C133.821 34.9064 133.615 35.4697 133.316 35.9955C133.018 36.5081 132.631 36.9758 132.169 37.3815C131.707 37.7954 131.173 38.1407 130.587 38.4042C129.994 38.6703 129.358 38.8557 128.702 38.9542C128.004 39.0551 127.297 39.1097 126.59 39.1173C126.259 39.1241 125.912 39.128 125.576 39.128L124.35 39.13L9.43001 39.128Z" fill="white"/>
<path d="M32.7973 20.3006C32.8081 19.4659 33.0298 18.6475 33.4418 17.9216C33.8538 17.1956 34.4428 16.5857 35.1539 16.1485C34.7021 15.5034 34.1062 14.9724 33.4134 14.5979C32.7205 14.2233 31.9499 14.0155 31.1627 13.9908C29.4835 13.8146 27.8555 14.9957 26.9998 14.9957C26.1275 14.9957 24.81 14.0083 23.3913 14.0375C22.4736 14.0672 21.5793 14.334 20.7954 14.8121C20.0115 15.2901 19.3649 15.9631 18.9184 16.7654C16.9844 20.1138 18.427 25.0349 20.2796 27.7415C21.2065 29.0668 22.2898 30.5473 23.7072 30.4948C25.0943 30.4372 25.6123 29.6103 27.2866 29.6103C28.9454 29.6103 29.4314 30.4948 30.8776 30.4614C32.366 30.4372 33.3038 29.1302 34.1981 27.7923C34.8641 26.8479 35.3766 25.8042 35.7166 24.6997C34.8518 24.334 34.1139 23.7218 33.5948 22.9395C33.0757 22.1572 32.7983 21.2394 32.7973 20.3006Z" fill="#010D1E"/>
<path d="M30.0659 12.2108C30.8774 11.2366 31.2772 9.98445 31.1804 8.72021C29.9406 8.85044 28.7953 9.44299 27.9728 10.3798C27.5707 10.8375 27.2627 11.3699 27.0664 11.9467C26.8702 12.5235 26.7896 13.1333 26.8291 13.7412C27.4493 13.7476 28.0628 13.6132 28.6234 13.3481C29.1841 13.083 29.6773 12.6942 30.0659 12.2108Z" fill="#010D1E"/>
<path d="M50.3306 27.1396H45.5972L44.4604 30.496H42.4556L46.939 18.078H49.022L53.5054 30.496H51.4663L50.3306 27.1396ZM46.0874 25.5907H49.8394L47.9898 20.1435H47.938L46.0874 25.5907Z" fill="#010D1E"/>
<path d="M63.188 25.9697C63.188 28.7832 61.6822 30.5908 59.4097 30.5908C58.834 30.6209 58.2615 30.4883 57.7578 30.2082C57.254 29.928 56.8392 29.5117 56.5611 29.0068H56.5181V33.4912H54.6597V21.4423H56.4585V22.9482H56.4927C56.7837 22.4457 57.2054 22.0316 57.713 21.7497C58.2207 21.4679 58.7952 21.3289 59.3755 21.3476C61.6733 21.3476 63.188 23.164 63.188 25.9697ZM61.2779 25.9697C61.2779 24.1367 60.3306 22.9316 58.8853 22.9316C57.4654 22.9316 56.5103 24.1621 56.5103 25.9697C56.5103 27.7939 57.4654 29.0156 58.8853 29.0156C60.3306 29.0156 61.2779 27.8193 61.2779 25.9697Z" fill="#010D1E"/>
<path d="M73.1529 25.9697C73.1529 28.7832 71.647 30.5908 69.3745 30.5908C68.7989 30.6209 68.2264 30.4883 67.7226 30.2081C67.2188 29.928 66.8041 29.5117 66.5259 29.0068H66.4829V33.4912H64.6245V21.4423H66.4233V22.9482H66.4575C66.7485 22.4457 67.1702 22.0315 67.6778 21.7497C68.1855 21.4679 68.76 21.3289 69.3403 21.3476C71.6382 21.3476 73.1529 23.164 73.1529 25.9697ZM71.2427 25.9697C71.2427 24.1367 70.2954 22.9316 68.8501 22.9316C67.4302 22.9316 66.4751 24.1621 66.4751 25.9697C66.4751 27.7939 67.4302 29.0156 68.8501 29.0156C70.2954 29.0156 71.2427 27.8193 71.2427 25.9697H71.2427Z" fill="#010D1E"/>
<path d="M79.7388 27.0361C79.8765 28.2675 81.0728 29.0761 82.7076 29.0761C84.274 29.0761 85.4009 28.2675 85.4009 27.1571C85.4009 26.1932 84.7212 25.6161 83.1118 25.2206L81.5025 24.8329C79.2222 24.2821 78.1636 23.2157 78.1636 21.4852C78.1636 19.3427 80.0308 17.871 82.6822 17.871C85.3062 17.871 87.105 19.3427 87.1656 21.4852H85.2896C85.1773 20.246 84.1528 19.4979 82.6558 19.4979C81.1587 19.4979 80.1343 20.2548 80.1343 21.3563C80.1343 22.2343 80.7886 22.7509 82.3892 23.1463L83.7573 23.4823C86.3052 24.0848 87.3638 25.1083 87.3638 26.9247C87.3638 29.2479 85.5132 30.703 82.5698 30.703C79.8159 30.703 77.9565 29.2821 77.8364 27.036L79.7388 27.0361Z" fill="#010D1E"/>
<path d="M91.3745 19.2998V21.4424H93.0962V22.9141H91.3745V27.9053C91.3745 28.6807 91.7192 29.042 92.4761 29.042C92.6805 29.0384 92.8845 29.0241 93.0874 28.999V30.4619C92.7471 30.5255 92.4013 30.5543 92.0552 30.5478C90.2222 30.5478 89.5073 29.8593 89.5073 28.1035V22.9141H88.1909V21.4424H89.5073V19.2998H91.3745Z" fill="#010D1E"/>
<path d="M94.0933 25.9697C94.0933 23.1211 95.771 21.3311 98.3872 21.3311C101.012 21.3311 102.682 23.1211 102.682 25.9697C102.682 28.8262 101.021 30.6084 98.3872 30.6084C95.7543 30.6084 94.0933 28.8262 94.0933 25.9697ZM100.789 25.9697C100.789 24.0156 99.8931 22.8623 98.3872 22.8623C96.8813 22.8623 95.9868 24.0244 95.9868 25.9697C95.9868 27.9316 96.8813 29.0762 98.3872 29.0762C99.8931 29.0762 100.789 27.9316 100.789 25.9697H100.789Z" fill="#010D1E"/>
<path d="M104.214 21.4423H105.987V22.9833H106.03C106.15 22.502 106.432 22.0766 106.828 21.7788C107.225 21.4809 107.712 21.3286 108.208 21.3475C108.422 21.3468 108.635 21.37 108.844 21.4169V23.1551C108.574 23.0725 108.292 23.0346 108.009 23.0428C107.739 23.0319 107.47 23.0795 107.22 23.1824C106.97 23.2853 106.746 23.441 106.562 23.6389C106.378 23.8368 106.239 24.0721 106.154 24.3288C106.07 24.5855 106.042 24.8574 106.073 25.1258V30.496H104.214L104.214 21.4423Z" fill="#010D1E"/>
<path d="M117.413 27.8369C117.163 29.4805 115.562 30.6084 113.514 30.6084C110.88 30.6084 109.246 28.8437 109.246 26.0127C109.246 23.1729 110.889 21.3311 113.436 21.3311C115.941 21.3311 117.516 23.0518 117.516 25.7969V26.4336H111.122V26.5459C111.092 26.8791 111.134 27.2148 111.244 27.5306C111.354 27.8464 111.53 28.1352 111.761 28.3778C111.991 28.6203 112.27 28.8111 112.58 28.9374C112.89 29.0637 113.223 29.1226 113.557 29.1103C113.996 29.1515 114.437 29.0498 114.814 28.8203C115.19 28.5909 115.483 28.246 115.648 27.8369L117.413 27.8369ZM111.13 25.1348H115.657C115.673 24.8352 115.628 24.5354 115.523 24.2541C115.419 23.9729 115.257 23.7164 115.048 23.5006C114.84 23.2849 114.589 23.1145 114.312 23.0003C114.034 22.8861 113.736 22.8305 113.436 22.8369C113.133 22.8351 112.833 22.8933 112.553 23.008C112.273 23.1227 112.019 23.2918 111.804 23.5054C111.59 23.7191 111.42 23.973 111.304 24.2527C111.189 24.5323 111.13 24.8321 111.13 25.1348V25.1348Z" fill="#010D1E"/>
</svg>
