<svg width="18" height="22" viewBox="0 0 18 22" fill="none" xmlns="http://www.w3.org/2000/svg">
<path d="M14.7973 11.3489C14.8081 10.5143 15.0298 9.69587 15.4418 8.96992C15.8538 8.24397 16.4428 7.63403 17.1539 7.19685C16.7021 6.55169 16.1062 6.02075 15.4134 5.6462C14.7205 5.27165 13.9499 5.0638 13.1627 5.03917C11.4835 4.86291 9.85552 6.044 8.99981 6.044C8.12754 6.044 6.81004 5.05667 5.39131 5.08586C4.47364 5.11551 3.57929 5.38237 2.79541 5.86042C2.01154 6.33848 1.36486 7.01144 0.918393 7.81373C-1.01561 11.1622 0.426982 16.0832 2.27959 18.7898C3.20649 20.1152 4.28977 21.5956 5.70722 21.5431C7.09428 21.4856 7.61232 20.6586 9.28662 20.6586C10.9454 20.6586 11.4314 21.5431 12.8776 21.5097C14.366 21.4856 15.3038 20.1785 16.1981 18.8406C16.8641 17.8962 17.3766 16.8525 17.7166 15.7481C16.8518 15.3824 16.1139 14.7702 15.5948 13.9879C15.0757 13.2056 14.7983 12.2878 14.7973 11.3489Z" fill="white"/>
<path d="M12.0656 3.49062C12.8772 2.51641 13.277 1.26423 13.1802 0C11.9403 0.13022 10.7951 0.722779 9.97259 1.65961C9.57045 2.11728 9.26245 2.64971 9.0662 3.22648C8.86996 3.80325 8.78931 4.41304 8.82888 5.021C9.44902 5.02739 10.0625 4.89297 10.6232 4.62788C11.1838 4.3628 11.6771 3.97395 12.0656 3.49062Z" fill="white"/>
</svg>
