<svg width="18" height="20" viewBox="0 0 18 20" fill="none" xmlns="http://www.w3.org/2000/svg">
<path d="M0.362431 0.315933C0.107634 0.620583 -0.0210212 1.01113 0.00282405 1.40757L0.00282405 18.5923C-0.0210905 18.9888 0.107573 19.3793 0.362431 19.684L0.419931 19.74L10.0465 10.1135V9.88638L0.419931 0.259521L0.362431 0.315933Z" fill="url(#paint0_linear)"/>
<path d="M13.2553 13.324L10.0466 10.1138V9.88667L13.256 6.67725L13.3284 6.71851L17.1302 8.87871C18.2162 9.49567 18.2162 10.5052 17.1302 11.1225L13.3284 13.2827L13.2553 13.324Z" fill="url(#paint1_linear)"/>
<path d="M13.3281 13.2821L10.0464 10L0.362305 19.684C0.583577 19.8791 0.866147 19.9907 1.16106 19.9994C1.45596 20.0082 1.74463 19.9134 1.97704 19.7317L13.3281 13.2821Z" fill="url(#paint2_linear)"/>
<path d="M13.3281 6.71792L1.97704 0.268314C1.74463 0.0865628 1.45596 -0.0081617 1.16106 0.000551736C0.866147 0.00926517 0.583577 0.120867 0.362305 0.316023L10.0464 10.0001L13.3281 6.71792Z" fill="url(#paint3_linear)"/>
<path opacity="0.2" d="M13.2558 13.2097L1.97704 19.6181C1.75358 19.7882 1.48085 19.881 1.20001 19.8825C0.919165 19.884 0.645457 19.7941 0.420193 19.6264L0.362305 19.6843L0.419805 19.7403L0.420193 19.7399C0.645419 19.9077 0.919142 19.9977 1.20001 19.9962C1.48087 19.9947 1.75362 19.9018 1.97704 19.7316L13.3281 13.282L13.2558 13.2097Z" fill="white"/>
<path opacity="0.12" d="M0.362413 19.571C0.10764 19.2663 -0.0210113 18.8758 0.00280619 18.4794L0.00280619 18.5929C-0.0210256 18.9893 0.107628 19.3799 0.362413 19.6845L0.420301 19.6266L0.362413 19.571Z" fill="white"/>
<path opacity="0.12" d="M17.1298 11.0085L13.2556 13.21L13.328 13.2822L17.1298 11.122C17.3534 11.025 17.5469 10.8698 17.6902 10.6725C17.8335 10.4752 17.9212 10.2432 17.9443 10.0005C17.8963 10.2203 17.7976 10.4258 17.6562 10.6008C17.5148 10.7758 17.3346 10.9154 17.1298 11.0085Z" fill="white"/>
<path opacity="0.25" d="M1.97751 0.382286L17.1304 8.99171C17.3353 9.08484 17.5156 9.22448 17.657 9.39955C17.7984 9.57461 17.897 9.78026 17.945 10.0001C17.922 9.75734 17.8343 9.52516 17.691 9.32782C17.5478 9.13047 17.3542 8.97519 17.1304 8.87819L1.97751 0.268763C0.891545 -0.348272 0.00317383 0.164252 0.00317383 1.40811L0.00317383 1.52164C0.00317383 0.277853 0.891545 -0.234671 1.97751 0.382286Z" fill="#010D1E"/>
<defs>
<linearGradient id="paint0_linear" x1="9.19279" y1="1.22638" x2="-3.84754" y2="14.2667" gradientUnits="userSpaceOnUse">
<stop stop-color="#00A0FF"/>
<stop offset="0.00657" stop-color="#00A1FF"/>
<stop offset="0.2601" stop-color="#00BEFF"/>
<stop offset="0.5122" stop-color="#00D2FF"/>
<stop offset="0.7604" stop-color="#00DFFF"/>
<stop offset="1" stop-color="#00E3FF"/>
</linearGradient>
<linearGradient id="paint1_linear" x1="18.5441" y1="10.0006" x2="-0.257419" y2="10.0006" gradientUnits="userSpaceOnUse">
<stop stop-color="#FFE000"/>
<stop offset="0.4087" stop-color="#FFBD00"/>
<stop offset="0.7754" stop-color="#FFA500"/>
<stop offset="1" stop-color="#FF9C00"/>
</linearGradient>
<linearGradient id="paint2_linear" x1="11.5449" y1="11.7833" x2="-6.13884" y2="29.4671" gradientUnits="userSpaceOnUse">
<stop stop-color="#FF3A44"/>
<stop offset="1" stop-color="#C31162"/>
</linearGradient>
<linearGradient id="paint3_linear" x1="-2.07605" y1="-5.40429" x2="5.82047" y2="2.49223" gradientUnits="userSpaceOnUse">
<stop stop-color="#32A071"/>
<stop offset="0.0685" stop-color="#2DA771"/>
<stop offset="0.4762" stop-color="#15CF74"/>
<stop offset="0.8009" stop-color="#06E775"/>
<stop offset="1" stop-color="#00F076"/>
</linearGradient>
</defs>
</svg>
